<mxfile host="app.diagrams.net" agent="Mozilla/5.0 (Windows NT 10.0; Win64; x64; rv:138.0) Gecko/20100101 Firefox/138.0" version="26.2.14">
  <diagram name="Page-1" id="P8pH1wAPzSwcCt93VveC">
    <mxGraphModel dx="1426" dy="871" grid="1" gridSize="10" guides="1" tooltips="1" connect="1" arrows="1" fold="1" page="1" pageScale="1" pageWidth="3300" pageHeight="4681" math="0" shadow="0">
      <root>
        <mxCell id="0" />
        <mxCell id="1" parent="0" />
        <mxCell id="SUJAVzPCyBz31thAN7e9-3" style="edgeStyle=orthogonalEdgeStyle;rounded=0;orthogonalLoop=1;jettySize=auto;html=1;entryX=0;entryY=0.5;entryDx=0;entryDy=0;" edge="1" parent="1" source="SUJAVzPCyBz31thAN7e9-1" target="SUJAVzPCyBz31thAN7e9-2">
          <mxGeometry relative="1" as="geometry" />
        </mxCell>
        <mxCell id="SUJAVzPCyBz31thAN7e9-1" value="data:image&#xa;Brain MRI Images" style="rectangle;fillColor=#fff2cc;strokeColor=#d6b656;" name="data" vertex="1" parent="1">
          <mxGeometry x="660" y="430" width="100" height="50" as="geometry" />
        </mxCell>
        <mxCell id="SUJAVzPCyBz31thAN7e9-5" style="edgeStyle=orthogonalEdgeStyle;rounded=0;orthogonalLoop=1;jettySize=auto;html=1;entryX=0;entryY=0.5;entryDx=0;entryDy=0;" edge="1" parent="1" source="SUJAVzPCyBz31thAN7e9-2" target="SUJAVzPCyBz31thAN7e9-4">
          <mxGeometry relative="1" as="geometry" />
        </mxCell>
        <mxCell id="SUJAVzPCyBz31thAN7e9-2" value="&lt;div&gt;transform:embed&lt;/div&gt;&lt;div&gt;Wavelet&lt;/div&gt;&lt;div&gt;Transformation&lt;/div&gt;" style="rounded=1;whiteSpace=wrap;html=1;arcSize=50;fillColor=#f8cecc;strokeColor=#b85450;" name="transform" vertex="1" parent="1">
          <mxGeometry x="840" y="430" width="100" height="50" as="geometry" />
        </mxCell>
        <mxCell id="SUJAVzPCyBz31thAN7e9-7" style="edgeStyle=orthogonalEdgeStyle;rounded=0;orthogonalLoop=1;jettySize=auto;html=1;entryX=0.5;entryY=0;entryDx=0;entryDy=0;" edge="1" parent="1" source="SUJAVzPCyBz31thAN7e9-4" target="SUJAVzPCyBz31thAN7e9-6">
          <mxGeometry relative="1" as="geometry" />
        </mxCell>
        <mxCell id="SUJAVzPCyBz31thAN7e9-4" value="data:numeric&#xa;Wavelet Features" style="rectangle;fillColor=#fff2cc;strokeColor=#d6b656;" name="data" vertex="1" parent="1">
          <mxGeometry x="1020" y="430" width="100" height="50" as="geometry" />
        </mxCell>
        <mxCell id="SUJAVzPCyBz31thAN7e9-9" style="edgeStyle=orthogonalEdgeStyle;rounded=0;orthogonalLoop=1;jettySize=auto;html=1;exitX=0.5;exitY=1;exitDx=0;exitDy=0;entryX=1;entryY=0.5;entryDx=0;entryDy=0;" edge="1" parent="1" source="SUJAVzPCyBz31thAN7e9-6" target="SUJAVzPCyBz31thAN7e9-8">
          <mxGeometry relative="1" as="geometry" />
        </mxCell>
        <mxCell id="SUJAVzPCyBz31thAN7e9-6" value="&lt;div&gt;transform:embed&lt;/div&gt;&lt;div&gt;Fuzzy Logic&lt;/div&gt;&lt;div&gt;Analysis&lt;/div&gt;" style="rounded=1;whiteSpace=wrap;html=1;arcSize=50;fillColor=#f8cecc;strokeColor=#b85450;" name="transform" vertex="1" parent="1">
          <mxGeometry x="1150" y="530" width="100" height="50" as="geometry" />
        </mxCell>
        <mxCell id="SUJAVzPCyBz31thAN7e9-11" style="edgeStyle=orthogonalEdgeStyle;rounded=0;orthogonalLoop=1;jettySize=auto;html=1;exitX=0;exitY=0.5;exitDx=0;exitDy=0;" edge="1" parent="1" source="SUJAVzPCyBz31thAN7e9-8" target="SUJAVzPCyBz31thAN7e9-10">
          <mxGeometry relative="1" as="geometry" />
        </mxCell>
        <mxCell id="SUJAVzPCyBz31thAN7e9-8" value="data:numeric&#xa;Refined Set of&#xa;Features" style="rectangle;fillColor=#fff2cc;strokeColor=#d6b656;" name="data" vertex="1" parent="1">
          <mxGeometry x="1020" y="630" width="100" height="50" as="geometry" />
        </mxCell>
        <mxCell id="SUJAVzPCyBz31thAN7e9-14" style="edgeStyle=orthogonalEdgeStyle;rounded=0;orthogonalLoop=1;jettySize=auto;html=1;exitX=0;exitY=0.5;exitDx=0;exitDy=0;entryX=1;entryY=0.5;entryDx=0;entryDy=0;" edge="1" parent="1" source="SUJAVzPCyBz31thAN7e9-10" target="SUJAVzPCyBz31thAN7e9-12">
          <mxGeometry relative="1" as="geometry" />
        </mxCell>
        <mxCell id="SUJAVzPCyBz31thAN7e9-10" value="generate:train" style="rounded=1;whiteSpace=wrap;html=1;arcSize=50;fillColor=#e1d5e7;strokeColor=#9673a6;" name="generate:train" vertex="1" parent="1">
          <mxGeometry x="840" y="630" width="100" height="50" as="geometry" />
        </mxCell>
        <mxCell id="SUJAVzPCyBz31thAN7e9-15" style="edgeStyle=orthogonalEdgeStyle;rounded=0;orthogonalLoop=1;jettySize=auto;html=1;entryX=0.5;entryY=0;entryDx=0;entryDy=0;" edge="1" parent="1" source="SUJAVzPCyBz31thAN7e9-12" target="SUJAVzPCyBz31thAN7e9-13">
          <mxGeometry relative="1" as="geometry" />
        </mxCell>
        <mxCell id="SUJAVzPCyBz31thAN7e9-12" value="model:semantic&#xa;WNN" style="shape=hexagon;perimeter=hexagonPerimeter2;fillColor=#b0e3e6;strokeColor=#0e8088;" name="model" vertex="1" parent="1">
          <mxGeometry x="650" y="630" width="120" height="50" as="geometry" />
        </mxCell>
        <mxCell id="SUJAVzPCyBz31thAN7e9-19" style="edgeStyle=orthogonalEdgeStyle;rounded=0;orthogonalLoop=1;jettySize=auto;html=1;exitX=0.5;exitY=1;exitDx=0;exitDy=0;entryX=0.5;entryY=0;entryDx=0;entryDy=0;" edge="1" parent="1" source="SUJAVzPCyBz31thAN7e9-13" target="SUJAVzPCyBz31thAN7e9-18">
          <mxGeometry relative="1" as="geometry" />
        </mxCell>
        <mxCell id="SUJAVzPCyBz31thAN7e9-13" value="infer:deduce" style="rounded=1;whiteSpace=wrap;html=1;arcSize=50;fillColor=#bac8d3;strokeColor=#23445d;" name="infer:deduce" vertex="1" parent="1">
          <mxGeometry x="520" y="730" width="100" height="50" as="geometry" />
        </mxCell>
        <mxCell id="SUJAVzPCyBz31thAN7e9-17" style="edgeStyle=orthogonalEdgeStyle;rounded=0;orthogonalLoop=1;jettySize=auto;html=1;exitX=1;exitY=0.5;exitDx=0;exitDy=0;entryX=0;entryY=0.5;entryDx=0;entryDy=0;" edge="1" parent="1" source="SUJAVzPCyBz31thAN7e9-16" target="SUJAVzPCyBz31thAN7e9-13">
          <mxGeometry relative="1" as="geometry" />
        </mxCell>
        <mxCell id="SUJAVzPCyBz31thAN7e9-16" value="data:image&#xa;Brain MRI Images" style="rectangle;fillColor=#fff2cc;strokeColor=#d6b656;" name="data" vertex="1" parent="1">
          <mxGeometry x="340" y="730" width="100" height="50" as="geometry" />
        </mxCell>
        <mxCell id="SUJAVzPCyBz31thAN7e9-18" value="symbol&#xa;Diagnostic Report" style="rectangle;fillColor=#dae8fc;strokeColor=#6c8ebf;" name="symbol" vertex="1" parent="1">
          <mxGeometry x="520" y="850" width="100" height="50" as="geometry" />
        </mxCell>
      </root>
    </mxGraphModel>
  </diagram>
</mxfile>
